<svg width="65" height="68" viewBox="0 0 65 68" fill="none" xmlns="http://www.w3.org/2000/svg">
<path d="M31.1797 4.55388C31.8297 4.15013 32.6219 4.15013 33.2516 4.55388L55.4328 18.6639C55.9609 19.0039 56.2859 19.6201 56.2859 20.2576L32.2156 37.1875L8.125 20.468V20.2555C8.125 19.618 8.45 19.0018 8.97813 18.683L31.1797 4.55176V4.55388Z" fill="#C5A2FF"/>
<path d="M32.2075 34.5228L55.2825 19.8603C55.3837 19.7971 55.499 19.7632 55.6168 19.7619C55.7346 19.7606 55.8506 19.7921 55.953 19.853C56.0555 19.9139 56.1406 20.0021 56.1998 20.1087C56.259 20.2152 56.2901 20.3363 56.29 20.4595V46.682C56.2903 47.3135 56.1354 47.9344 55.8401 48.4851C55.5449 49.0359 55.1192 49.498 54.6041 49.827L32.9916 63.5545C32.9365 63.5861 32.8768 63.6077 32.8148 63.6183C32.7602 63.6352 32.7033 63.6431 32.6463 63.6416C32.4156 63.7091 32.1745 63.7283 31.9368 63.698C31.699 63.6678 31.4694 63.5887 31.2609 63.4653H31.2731L26.4062 40.375L32.2075 34.5228Z" fill="#A268FF"/>
<path d="M32.2156 62.9468V34.5355L9.16094 19.873C9.05914 19.8045 8.94157 19.7661 8.82063 19.7617C8.69968 19.7573 8.57985 19.7872 8.47376 19.8481C8.36768 19.909 8.27929 19.9988 8.2179 20.1079C8.15652 20.217 8.12442 20.3414 8.125 20.468V46.6905C8.125 47.9868 8.775 49.1768 9.81094 49.8355L31.2812 63.478C31.3729 63.5385 31.4783 63.5723 31.5866 63.5759C31.6948 63.5796 31.8021 63.553 31.8973 63.4989C31.9925 63.4448 32.0721 63.3651 32.1281 63.268C32.1841 63.171 32.2143 63.0601 32.2156 62.9468Z" fill="#8236FD"/>
<path d="M29.4531 56.9117V52.7467C29.4531 52.258 29.2094 51.8117 28.8234 51.5567L23.1359 47.9655C22.75 47.7317 22.2625 48.008 22.2625 48.4755V52.6405C22.2625 53.1292 22.5062 53.5755 22.8922 53.8305L28.5797 57.4217C28.9656 57.6555 29.4531 57.3792 29.4531 56.9117Z" fill="#D3D3D3"/>
<path d="M23.8875 35.173V25.483L17.225 25.0155V31.7305C17.225 31.943 17.3266 32.1555 17.5094 32.283L22.9531 35.7468C23.3594 35.9805 23.8875 35.683 23.8875 35.173Z" fill="#7D7D7D"/>
<path d="M41.3156 9.69638L17.225 25.0176L23.8875 29.2676L47.9781 13.9676L41.3156 9.69638Z" fill="#FFF3EF"/>
</svg>
