<svg width="32" height="32" viewBox="0 0 32 32" fill="none" xmlns="http://www.w3.org/2000/svg">
<path d="M15.35 2.14299C15.67 1.95299 16.06 1.95299 16.37 2.14299L27.29 8.78299C27.55 8.94299 27.71 9.23299 27.71 9.53299L15.86 17.5L4 9.63199V9.53199C4 9.23199 4.16 8.94199 4.42 8.79199L15.35 2.14199V2.14299Z" fill="#C5A2FF"/>
<path d="M15.856 16.246L27.216 9.34597C27.2658 9.31627 27.3226 9.3003 27.3806 9.2997C27.4386 9.2991 27.4957 9.31388 27.5461 9.34255C27.5965 9.37121 27.6384 9.41273 27.6676 9.46287C27.6967 9.51301 27.7121 9.56998 27.712 9.62797V21.968C27.7121 22.2651 27.6359 22.5573 27.4905 22.8165C27.3452 23.0757 27.1356 23.2931 26.882 23.448L16.242 29.908C16.2149 29.9228 16.1855 29.933 16.155 29.938C16.1281 29.946 16.1001 29.9497 16.072 29.949C15.9585 29.9807 15.8398 29.9898 15.7227 29.9755C15.6057 29.9613 15.4926 29.924 15.39 29.866H15.396L13 19L15.856 16.246Z" fill="#A268FF"/>
<path d="M15.86 29.622V16.252L4.51 9.35202C4.45989 9.3198 4.40201 9.3017 4.34247 9.29964C4.28292 9.29757 4.22393 9.31162 4.1717 9.34029C4.11948 9.36896 4.07596 9.4112 4.04574 9.46254C4.01552 9.51389 3.99972 9.57244 4 9.63202V21.972C4 22.582 4.32 23.142 4.83 23.452L15.4 29.872C15.4451 29.9005 15.497 29.9164 15.5503 29.9181C15.6036 29.9198 15.6564 29.9073 15.7033 29.8818C15.7501 29.8564 15.7894 29.8189 15.8169 29.7732C15.8445 29.7275 15.8593 29.6753 15.86 29.622V29.622Z" fill="#8236FD"/>
<path d="M14.5 26.782V24.822C14.5 24.592 14.38 24.382 14.19 24.262L11.39 22.572C11.2 22.462 10.96 22.592 10.96 22.812V24.772C10.96 25.002 11.08 25.212 11.27 25.332L14.07 27.022C14.26 27.132 14.5 27.002 14.5 26.782Z" fill="#D3D3D3"/>
<path d="M11.76 16.552V11.992L8.47998 11.772V14.932C8.47998 15.032 8.52998 15.132 8.61998 15.192L11.3 16.822C11.5 16.932 11.76 16.792 11.76 16.552V16.552Z" fill="#7D7D7D"/>
<path d="M20.34 4.56299L8.47998 11.773L11.76 13.773L23.62 6.57299L20.34 4.56299V4.56299Z" fill="#FFF3EF"/>
</svg>
