<svg width="70" height="11" viewBox="0 0 70 11" fill="none" xmlns="http://www.w3.org/2000/svg">
<g clip-path="url(#clip0_1_507)">
<path d="M2.70903 10.6171C2.41953 10.7532 2.09103 10.5146 2.14953 10.2101L2.77203 6.9582L0.129778 4.65095C-0.116972 4.43507 0.0112777 4.04045 0.342028 3.99782L4.01553 3.51932L5.65353 0.544508C5.80128 0.276383 6.20103 0.276383 6.34878 0.544508L7.98678 3.51932L11.6603 3.99782C11.991 4.04045 12.1193 4.43507 11.8718 4.65095L9.23028 6.9582L9.85278 10.2101C9.91128 10.5146 9.58278 10.7532 9.29328 10.6171L6.00003 9.06607L2.70828 10.6171H2.70903Z" fill="#FFF500"/>
</g>
<g clip-path="url(#clip1_1_507)">
<path d="M16.709 10.6171C16.4195 10.7532 16.091 10.5146 16.1495 10.2101L16.772 6.9582L14.1298 4.65095C13.883 4.43507 14.0113 4.04045 14.342 3.99782L18.0155 3.51932L19.6535 0.544508C19.8013 0.276383 20.201 0.276383 20.3488 0.544508L21.9868 3.51932L25.6603 3.99782C25.991 4.04045 26.1193 4.43507 25.8718 4.65095L23.2303 6.9582L23.8528 10.2101C23.9113 10.5146 23.5828 10.7532 23.2933 10.6171L20 9.06607L16.7083 10.6171H16.709Z" fill="#FFF500"/>
</g>
<g clip-path="url(#clip2_1_507)">
<path d="M32.2578 10.6171C32.0166 10.7532 31.7428 10.5146 31.7916 10.2101L32.3103 6.9582L30.1084 4.65095C29.9028 4.43507 30.0097 4.04045 30.2853 3.99782L33.3466 3.51932L34.7116 0.544508C34.8347 0.276383 35.1678 0.276383 35.2909 0.544508L36.6559 3.51932L39.7172 3.99782C39.9928 4.04045 40.0997 4.43507 39.8934 4.65095L37.6922 6.9582L38.2109 10.2101C38.2597 10.5146 37.9859 10.7532 37.7447 10.6171L35.0003 9.06607L32.2572 10.6171H32.2578Z" fill="#FFF500"/>
</g>
<g clip-path="url(#clip3_1_507)">
<path d="M46.709 10.6171C46.4195 10.7532 46.091 10.5146 46.1495 10.2101L46.772 6.9582L44.1298 4.65095C43.883 4.43507 44.0113 4.04045 44.342 3.99782L48.0155 3.51932L49.6535 0.544508C49.8013 0.276383 50.201 0.276383 50.3488 0.544508L51.9868 3.51932L55.6603 3.99782C55.991 4.04045 56.1193 4.43507 55.8718 4.65095L53.2303 6.9582L53.8528 10.2101C53.9113 10.5146 53.5828 10.7532 53.2933 10.6171L50 9.06607L46.7083 10.6171H46.709Z" fill="#FFF500"/>
</g>
<g clip-path="url(#clip4_1_507)">
<path d="M60.709 10.6171C60.4195 10.7532 60.091 10.5146 60.1495 10.2101L60.772 6.9582L58.1298 4.65095C57.883 4.43507 58.0113 4.04045 58.342 3.99782L62.0155 3.51932L63.6535 0.544508C63.8013 0.276383 64.201 0.276383 64.3488 0.544508L65.9868 3.51932L69.6603 3.99782C69.991 4.04045 70.1193 4.43507 69.8718 4.65095L67.2303 6.9582L67.8528 10.2101C67.9113 10.5146 67.5828 10.7532 67.2933 10.6171L64 9.06607L60.7083 10.6171H60.709Z" fill="black" fill-opacity="0.5"/>
</g>
<defs>
<clipPath id="clip0_1_507">
<rect width="12" height="11" fill="white"/>
</clipPath>
<clipPath id="clip1_1_507">
<rect width="12" height="11" fill="white" transform="translate(14)"/>
</clipPath>
<clipPath id="clip2_1_507">
<rect width="10" height="11" fill="white" transform="translate(30)"/>
</clipPath>
<clipPath id="clip3_1_507">
<rect width="12" height="11" fill="white" transform="translate(44)"/>
</clipPath>
<clipPath id="clip4_1_507">
<rect width="12" height="11" fill="white" transform="translate(58)"/>
</clipPath>
</defs>
</svg>
