<svg width="70" height="11" viewBox="0 0 70 11" fill="none" xmlns="http://www.w3.org/2000/svg">
<g clip-path="url(#clip0_1_489)">
<path d="M2.70903 10.6171C2.41953 10.7532 2.09103 10.5146 2.14953 10.2101L2.77203 6.95818L0.129778 4.65093C-0.116972 4.43506 0.0112777 4.04043 0.342028 3.99781L4.01553 3.51931L5.65353 0.544493C5.80128 0.276368 6.20103 0.276368 6.34878 0.544493L7.98678 3.51931L11.6603 3.99781C11.991 4.04043 12.1193 4.43506 11.8718 4.65093L9.23028 6.95818L9.85278 10.2101C9.91128 10.5146 9.58278 10.7532 9.29328 10.6171L6.00003 9.06606L2.70828 10.6171H2.70903Z" fill="#FFF500"/>
</g>
<g clip-path="url(#clip1_1_489)">
<path d="M16.709 10.6171C16.4195 10.7532 16.091 10.5146 16.1495 10.2101L16.772 6.95818L14.1298 4.65093C13.883 4.43506 14.0113 4.04043 14.342 3.99781L18.0155 3.51931L19.6535 0.544493C19.8013 0.276368 20.201 0.276368 20.3488 0.544493L21.9868 3.51931L25.6603 3.99781C25.991 4.04043 26.1193 4.43506 25.8718 4.65093L23.2303 6.95818L23.8528 10.2101C23.9113 10.5146 23.5828 10.7532 23.2933 10.6171L20 9.06606L16.7083 10.6171H16.709Z" fill="#FFF500"/>
</g>
<g clip-path="url(#clip2_1_489)">
<path d="M32.2578 10.6171C32.0166 10.7532 31.7428 10.5146 31.7916 10.2101L32.3103 6.95818L30.1084 4.65093C29.9028 4.43506 30.0097 4.04043 30.2853 3.99781L33.3466 3.51931L34.7116 0.544493C34.8347 0.276368 35.1678 0.276368 35.2909 0.544493L36.6559 3.51931L39.7172 3.99781C39.9928 4.04043 40.0997 4.43506 39.8934 4.65093L37.6922 6.95818L38.2109 10.2101C38.2597 10.5146 37.9859 10.7532 37.7447 10.6171L35.0003 9.06606L32.2572 10.6171H32.2578Z" fill="#FFF500"/>
</g>
<g clip-path="url(#clip3_1_489)">
<path d="M46.709 10.6171C46.4195 10.7532 46.091 10.5146 46.1495 10.2101L46.772 6.95818L44.1298 4.65093C43.883 4.43506 44.0113 4.04043 44.342 3.99781L48.0155 3.51931L49.6535 0.544493C49.8013 0.276368 50.201 0.276368 50.3488 0.544493L51.9868 3.51931L55.6603 3.99781C55.991 4.04043 56.1193 4.43506 55.8718 4.65093L53.2303 6.95818L53.8528 10.2101C53.9113 10.5146 53.5828 10.7532 53.2933 10.6171L50 9.06606L46.7083 10.6171H46.709Z" fill="#FFF500"/>
</g>
<g clip-path="url(#clip4_1_489)">
<path d="M60.709 10.6171C60.4195 10.7532 60.091 10.5146 60.1495 10.2101L60.772 6.95818L58.1298 4.65093C57.883 4.43506 58.0113 4.04043 58.342 3.99781L62.0155 3.51931L63.6535 0.544493C63.8013 0.276368 64.201 0.276368 64.3488 0.544493L65.9868 3.51931L69.6603 3.99781C69.991 4.04043 70.1193 4.43506 69.8718 4.65093L67.2303 6.95818L67.8528 10.2101C67.9113 10.5146 67.5828 10.7532 67.2933 10.6171L64 9.06606L60.7083 10.6171H60.709Z" fill="#FFF500"/>
</g>
<defs>
<clipPath id="clip0_1_489">
<rect width="12" height="11" fill="white"/>
</clipPath>
<clipPath id="clip1_1_489">
<rect width="12" height="11" fill="white" transform="translate(14)"/>
</clipPath>
<clipPath id="clip2_1_489">
<rect width="10" height="11" fill="white" transform="translate(30)"/>
</clipPath>
<clipPath id="clip3_1_489">
<rect width="12" height="11" fill="white" transform="translate(44)"/>
</clipPath>
<clipPath id="clip4_1_489">
<rect width="12" height="11" fill="white" transform="translate(58)"/>
</clipPath>
</defs>
</svg>
