<svg width="45" height="42" viewBox="0 0 45 42" fill="none" xmlns="http://www.w3.org/2000/svg">
<g clip-path="url(#clip0_1_227)">
<rect width="45" height="42" fill="white"/>
<path d="M5.625 0C4.13316 0 2.70242 0.553123 1.64752 1.53769C0.592632 2.52226 0 3.85761 0 5.25L0 36.75C0 38.1424 0.592632 39.4777 1.64752 40.4623C2.70242 41.4469 4.13316 42 5.625 42H39.375C40.8668 42 42.2976 41.4469 43.3525 40.4623C44.4074 39.4777 45 38.1424 45 36.75V5.25C45 3.85761 44.4074 2.52226 43.3525 1.53769C42.2976 0.553123 40.8668 0 39.375 0L5.625 0ZM33.8344 13.0462C34.225 13.4105 34.4471 13.9031 34.4529 14.4185C34.4587 14.9338 34.2477 15.4307 33.8653 15.8025L22.6378 28.9013C22.4448 29.0952 22.212 29.2509 21.9531 29.359C21.6942 29.467 21.4146 29.5252 21.131 29.5301C20.8475 29.535 20.5658 29.4865 20.3028 29.3875C20.0397 29.2885 19.8008 29.1409 19.6003 28.9537L12.1613 22.008C11.954 21.8278 11.7878 21.6104 11.6725 21.3689C11.5572 21.1274 11.4952 20.8667 11.4902 20.6024C11.4852 20.338 11.5373 20.0755 11.6434 19.8303C11.7495 19.5852 11.9074 19.3625 12.1077 19.1755C12.308 18.9886 12.5466 18.8412 12.8093 18.7422C13.0719 18.6432 13.3532 18.5945 13.6365 18.5992C13.9197 18.6039 14.199 18.6617 14.4578 18.7693C14.7165 18.8769 14.9494 19.0321 15.1425 19.2255L21.0319 24.7196L30.7997 13.104C30.9923 12.9097 31.2249 12.7536 31.4835 12.6451C31.7422 12.5366 32.0217 12.4778 32.3053 12.4725C32.5888 12.4671 32.8707 12.5151 33.1339 12.6137C33.3971 12.7123 33.6363 12.8594 33.8372 13.0462H33.8344Z" fill="#75E24E"/>
</g>
<defs>
<clipPath id="clip0_1_227">
<rect width="45" height="42" fill="white"/>
</clipPath>
</defs>
</svg>
