<svg width="52" height="38" viewBox="0 0 52 38" fill="none" xmlns="http://www.w3.org/2000/svg">
<path d="M20.8 9.49996C20.1104 9.49996 19.4491 9.70014 18.9615 10.0565C18.4739 10.4128 18.2 10.896 18.2 11.4C18.2 11.9039 18.4739 12.3871 18.9615 12.7435C19.4491 13.0998 20.1104 13.3 20.8 13.3H35.3236L31.9618 15.7567C31.4882 16.115 31.2261 16.5949 31.232 17.0931C31.238 17.5913 31.5114 18.0678 31.9935 18.4201C32.4755 18.7724 33.1276 18.9722 33.8094 18.9765C34.4911 18.9809 35.1478 18.7894 35.6382 18.4433L43.4382 12.7433C43.9256 12.387 44.1994 11.9038 44.1994 11.4C44.1994 10.8961 43.9256 10.413 43.4382 10.0567L35.6382 4.35666C35.3984 4.17519 35.1115 4.03044 34.7942 3.93087C34.477 3.83129 34.1359 3.77888 33.7906 3.77668C33.4454 3.77449 33.103 3.82256 32.7835 3.9181C32.464 4.01363 32.1737 4.15471 31.9296 4.33311C31.6854 4.5115 31.4924 4.72364 31.3617 4.95715C31.2309 5.19065 31.1651 5.44084 31.1681 5.69312C31.1711 5.9454 31.2429 6.19472 31.3791 6.42653C31.5154 6.65834 31.7135 6.86799 31.9618 7.04326L35.3236 9.49996H20.8ZM31.2 28.5C31.8896 28.5 32.5509 28.2998 33.0385 27.9435C33.5261 27.5871 33.8 27.1039 33.8 26.6C33.8 26.096 33.5261 25.6128 33.0385 25.2565C32.5509 24.9001 31.8896 24.7 31.2 24.7H16.6764L20.0382 22.2433C20.2865 22.068 20.4846 21.8583 20.6209 21.6265C20.7571 21.3947 20.8288 21.1454 20.8318 20.8931C20.8348 20.6408 20.7691 20.3906 20.6383 20.1571C20.5076 19.9236 20.3145 19.7115 20.0704 19.5331C19.8263 19.3547 19.536 19.2136 19.2165 19.1181C18.8969 19.0226 18.5546 18.9745 18.2094 18.9767C17.8641 18.9789 17.523 19.0313 17.2057 19.1309C16.8885 19.2304 16.6016 19.3752 16.3618 19.5567L8.5618 25.2567C8.07437 25.613 7.80055 26.0961 7.80055 26.6C7.80055 27.1038 8.07437 27.587 8.5618 27.9433L16.3618 33.6433C16.8522 33.9894 17.5089 34.1809 18.1906 34.1765C18.8724 34.1722 19.5245 33.9724 20.0065 33.6201C20.4886 33.2678 20.762 32.7913 20.7679 32.2931C20.7739 31.7949 20.5118 31.315 20.0382 30.9567L16.6764 28.5H31.2Z" fill="#0E0E0E"/>
</svg>
