<svg width="131" height="134" viewBox="0 0 131 134" fill="none" xmlns="http://www.w3.org/2000/svg">
<rect width="131" height="134" fill="#9003FF"/>
<path d="M61.625 62.1875H70.375V47.4375H83.5L66 32.6875L48.5 47.4375H61.625V62.1875ZM74.75 53.8906V59.5767L94.7831 65.875L66 74.9204L37.2169 65.875L57.25 59.5767V53.8906L31 62.1875V76.9375L66 88L101 76.9375V62.1875L74.75 53.8906Z" fill="black" fill-opacity="0.38"/>
<path d="M26.9339 96.84H28.4099V102.072C28.4099 102.6 28.5259 103.016 28.7579 103.32C28.9899 103.616 29.3619 103.764 29.8739 103.764C30.3859 103.764 30.7579 103.616 30.9899 103.32C31.2219 103.016 31.3379 102.6 31.3379 102.072V96.84H32.8139V102.072C32.8139 102.992 32.5699 103.732 32.0819 104.292C31.5939 104.844 30.8579 105.12 29.8739 105.12C28.8819 105.12 28.1419 104.844 27.6539 104.292C27.1739 103.732 26.9339 102.992 26.9339 102.072V96.84ZM37.4277 105.12C37.2277 105.12 37.0237 105.1 36.8157 105.06C36.6157 105.02 36.4117 104.964 36.2037 104.892V107.556H34.8237V98.916H36.1317V99.744C36.5077 99.368 36.8277 99.116 37.0917 98.988C37.3557 98.86 37.6317 98.796 37.9197 98.796C38.5837 98.796 39.0957 99.044 39.4557 99.54C39.8157 100.036 39.9957 100.732 39.9957 101.628V102.276C39.9957 103.148 39.7757 103.84 39.3357 104.352C38.8957 104.864 38.2597 105.12 37.4277 105.12ZM37.5477 100.08C37.3637 100.08 37.1677 100.136 36.9597 100.248C36.7597 100.352 36.5077 100.556 36.2037 100.86V103.644C36.5957 103.804 36.9557 103.884 37.2837 103.884C37.7477 103.884 38.0797 103.74 38.2797 103.452C38.4797 103.164 38.5797 102.772 38.5797 102.276V101.628C38.5797 101.092 38.4877 100.7 38.3037 100.452C38.1277 100.204 37.8757 100.08 37.5477 100.08ZM41.6811 103.284V96.12H43.0611V103.284C43.0611 103.404 43.0891 103.52 43.1451 103.632C43.2091 103.736 43.3291 103.788 43.5051 103.788H43.6971V105.06H43.3611C42.9051 105.06 42.5571 104.972 42.3171 104.796C42.0771 104.62 41.9091 104.396 41.8131 104.124C41.7251 103.852 41.6811 103.572 41.6811 103.284ZM50.1335 101.592V102.312C50.1335 103.16 49.9015 103.84 49.4375 104.352C48.9735 104.864 48.3175 105.12 47.4695 105.12C46.6215 105.12 45.9655 104.864 45.5015 104.352C45.0375 103.84 44.8055 103.16 44.8055 102.312V101.592C44.8055 100.744 45.0335 100.068 45.4895 99.564C45.9535 99.052 46.6135 98.796 47.4695 98.796C48.3255 98.796 48.9815 99.052 49.4375 99.564C49.9015 100.068 50.1335 100.744 50.1335 101.592ZM48.7175 101.592C48.7175 101.104 48.6095 100.724 48.3935 100.452C48.1775 100.172 47.8695 100.032 47.4695 100.032C47.0695 100.032 46.7615 100.172 46.5455 100.452C46.3295 100.724 46.2215 101.104 46.2215 101.592V102.312C46.2215 102.8 46.3295 103.184 46.5455 103.464C46.7615 103.744 47.0695 103.884 47.4695 103.884C47.8695 103.884 48.1775 103.744 48.3935 103.464C48.6095 103.184 48.7175 102.8 48.7175 102.312V101.592ZM56.4089 105.06C56.0009 105.06 55.6729 104.976 55.4249 104.808C55.1849 104.64 55.0089 104.432 54.8969 104.184C54.5529 104.504 54.2209 104.74 53.9009 104.892C53.5809 105.044 53.2369 105.12 52.8689 105.12C52.3329 105.12 51.9369 104.948 51.6809 104.604C51.4329 104.26 51.3089 103.824 51.3089 103.296C51.3089 102.944 51.3729 102.636 51.5009 102.372C51.6369 102.1 51.8569 101.888 52.1609 101.736C52.4649 101.584 52.8809 101.508 53.4089 101.508C53.6169 101.508 53.8329 101.524 54.0569 101.556C54.2809 101.58 54.5049 101.612 54.7289 101.652V100.944C54.7289 100.608 54.6369 100.38 54.4529 100.26C54.2689 100.132 54.0209 100.068 53.7089 100.068C53.4689 100.068 53.2049 100.1 52.9169 100.164C52.6369 100.228 52.3329 100.328 52.0049 100.464L51.6089 99.288C52.4169 98.96 53.1489 98.796 53.8049 98.796C54.3969 98.796 54.8529 98.896 55.1729 99.096C55.5009 99.296 55.7289 99.56 55.8569 99.888C55.9849 100.216 56.0489 100.568 56.0489 100.944V103.284C56.0489 103.404 56.0809 103.52 56.1449 103.632C56.2169 103.736 56.3529 103.788 56.5529 103.788H56.6849V105.06H56.4089ZM52.6409 103.272C52.6409 103.488 52.6889 103.66 52.7849 103.788C52.8809 103.908 53.0209 103.968 53.2049 103.968C53.3889 103.968 53.5969 103.92 53.8289 103.824C54.0609 103.728 54.3609 103.504 54.7289 103.152V102.636C54.3129 102.564 53.9049 102.528 53.5049 102.528C53.1929 102.528 52.9689 102.592 52.8329 102.72C52.7049 102.848 52.6409 103.032 52.6409 103.272ZM61.5669 105V104.172C61.1989 104.54 60.8789 104.792 60.6069 104.928C60.3429 105.056 60.0669 105.12 59.7789 105.12C59.1229 105.12 58.6109 104.872 58.2429 104.376C57.8829 103.88 57.7029 103.184 57.7029 102.288V101.64C57.7029 100.768 57.9229 100.076 58.3629 99.564C58.8029 99.052 59.4389 98.796 60.2709 98.796C60.4789 98.796 60.6829 98.816 60.8829 98.856C61.0909 98.896 61.2949 98.952 61.4949 99.024V96.12H62.8749V105H61.5669ZM59.1189 102.288C59.1189 102.824 59.2069 103.216 59.3829 103.464C59.5669 103.712 59.8229 103.836 60.1509 103.836C60.3349 103.836 60.5309 103.784 60.7389 103.68C60.9469 103.568 61.1989 103.36 61.4949 103.056V100.272C61.1029 100.112 60.7429 100.032 60.4149 100.032C59.9509 100.032 59.6189 100.176 59.4189 100.464C59.2189 100.752 59.1189 101.144 59.1189 101.64V102.288ZM68.8347 97.764H67.3827V96.336H68.8347V97.764ZM68.7987 105H67.4187V98.916H68.7987V105ZM72.2 100.788V105H70.82V98.916H72.128V99.72C72.504 99.392 72.852 99.156 73.172 99.012C73.492 98.868 73.82 98.796 74.156 98.796C74.9 98.796 75.408 99.124 75.68 99.78C76.08 99.428 76.452 99.176 76.796 99.024C77.14 98.872 77.488 98.796 77.84 98.796C78.4 98.796 78.828 98.984 79.124 99.36C79.42 99.728 79.568 100.248 79.568 100.92V105H78.188V101.088C78.188 100.416 77.932 100.08 77.42 100.08C77.22 100.08 77 100.128 76.76 100.224C76.52 100.32 76.228 100.508 75.884 100.788V105H74.504V101.088C74.504 100.416 74.248 100.08 73.736 100.08C73.536 100.08 73.316 100.128 73.076 100.224C72.836 100.32 72.544 100.508 72.2 100.788ZM86.1183 105.06C85.7103 105.06 85.3823 104.976 85.1343 104.808C84.8943 104.64 84.7183 104.432 84.6063 104.184C84.2623 104.504 83.9303 104.74 83.6103 104.892C83.2903 105.044 82.9463 105.12 82.5783 105.12C82.0423 105.12 81.6463 104.948 81.3903 104.604C81.1423 104.26 81.0183 103.824 81.0183 103.296C81.0183 102.944 81.0823 102.636 81.2103 102.372C81.3463 102.1 81.5663 101.888 81.8703 101.736C82.1743 101.584 82.5903 101.508 83.1183 101.508C83.3263 101.508 83.5423 101.524 83.7663 101.556C83.9903 101.58 84.2143 101.612 84.4383 101.652V100.944C84.4383 100.608 84.3463 100.38 84.1623 100.26C83.9783 100.132 83.7303 100.068 83.4183 100.068C83.1783 100.068 82.9143 100.1 82.6263 100.164C82.3463 100.228 82.0423 100.328 81.7143 100.464L81.3183 99.288C82.1263 98.96 82.8583 98.796 83.5143 98.796C84.1063 98.796 84.5623 98.896 84.8823 99.096C85.2103 99.296 85.4383 99.56 85.5663 99.888C85.6943 100.216 85.7583 100.568 85.7583 100.944V103.284C85.7583 103.404 85.7903 103.52 85.8543 103.632C85.9263 103.736 86.0623 103.788 86.2623 103.788H86.3943V105.06H86.1183ZM82.3503 103.272C82.3503 103.488 82.3983 103.66 82.4943 103.788C82.5903 103.908 82.7303 103.968 82.9143 103.968C83.0983 103.968 83.3063 103.92 83.5383 103.824C83.7703 103.728 84.0703 103.504 84.4383 103.152V102.636C84.0223 102.564 83.6143 102.528 83.2143 102.528C82.9023 102.528 82.6783 102.592 82.5423 102.72C82.4143 102.848 82.3503 103.032 82.3503 103.272ZM92.7643 105.612C92.7643 106.26 92.5083 106.764 91.9963 107.124C91.4923 107.492 90.7883 107.676 89.8843 107.676C89.4603 107.676 89.0123 107.628 88.5403 107.532C88.0683 107.436 87.6323 107.276 87.2323 107.052L87.6283 105.96C88.0123 106.152 88.3923 106.288 88.7683 106.368C89.1443 106.456 89.5123 106.5 89.8723 106.5C90.3763 106.5 90.7603 106.432 91.0243 106.296C91.2883 106.16 91.4203 105.98 91.4203 105.756C91.4203 105.412 91.2163 105.24 90.8083 105.24H89.3683C88.9763 105.24 88.6603 105.176 88.4203 105.048C88.1803 104.92 88.0043 104.756 87.8923 104.556C87.7803 104.348 87.7243 104.132 87.7243 103.908C87.7243 103.676 87.7723 103.46 87.8683 103.26C87.9723 103.052 88.1123 102.86 88.2883 102.684C88.0003 102.508 87.7683 102.272 87.5923 101.976C87.4243 101.68 87.3403 101.324 87.3403 100.908C87.3403 100.436 87.4403 100.044 87.6403 99.732C87.8403 99.42 88.1123 99.188 88.4563 99.036C88.8083 98.876 89.1963 98.796 89.6203 98.796H89.8243C89.9843 98.796 90.1403 98.808 90.2923 98.832C90.4443 98.848 90.5883 98.876 90.7243 98.916H92.8963V100.092L91.6963 99.9C91.8163 100.028 91.9083 100.188 91.9723 100.38C92.0443 100.564 92.0803 100.792 92.0803 101.064C92.0803 101.472 91.9763 101.824 91.7683 102.12C91.5683 102.408 91.2963 102.632 90.9523 102.792C90.6163 102.944 90.2403 103.02 89.8243 103.02H89.6203C89.4603 103.02 89.3083 103.008 89.1643 102.984C89.0763 103.08 89.0123 103.18 88.9723 103.284C88.9323 103.38 88.9123 103.472 88.9123 103.56C88.9123 103.84 89.0923 103.98 89.4523 103.98H90.9163C91.4683 103.98 91.9123 104.124 92.2483 104.412C92.5923 104.692 92.7643 105.092 92.7643 105.612ZM89.8243 101.892C90.0723 101.892 90.2883 101.808 90.4723 101.64C90.6643 101.472 90.7603 101.228 90.7603 100.908C90.7603 100.588 90.6643 100.344 90.4723 100.176C90.2883 100.008 90.0723 99.924 89.8243 99.924H89.6203C89.3643 99.924 89.1403 100.008 88.9483 100.176C88.7643 100.344 88.6723 100.588 88.6723 100.908C88.6723 101.228 88.7643 101.472 88.9483 101.64C89.1403 101.808 89.3643 101.892 89.6203 101.892H89.8243ZM98.8273 104.652C98.4113 104.82 98.0193 104.94 97.6513 105.012C97.2833 105.084 96.9353 105.12 96.6073 105.12C95.7033 105.12 95.0193 104.864 94.5553 104.352C94.0913 103.84 93.8593 103.16 93.8593 102.312V101.592C93.8593 101.024 93.9633 100.532 94.1713 100.116C94.3793 99.7 94.6753 99.376 95.0593 99.144C95.4433 98.912 95.8953 98.796 96.4153 98.796C96.8393 98.796 97.2353 98.884 97.6033 99.06C97.9793 99.228 98.2833 99.496 98.5153 99.864C98.7553 100.224 98.8753 100.688 98.8753 101.256C98.8753 101.424 98.8633 101.604 98.8393 101.796C98.8153 101.98 98.7753 102.176 98.7193 102.384H95.1913C95.2073 102.88 95.3313 103.252 95.5633 103.5C95.7953 103.748 96.1673 103.872 96.6793 103.872C96.9513 103.872 97.2313 103.84 97.5193 103.776C97.8153 103.712 98.1193 103.616 98.4313 103.488L98.8273 104.652ZM96.4153 99.96C96.0473 99.96 95.7593 100.08 95.5513 100.32C95.3513 100.552 95.2353 100.888 95.2033 101.328H97.5073C97.5153 101.288 97.5193 101.252 97.5193 101.22C97.5193 101.18 97.5193 101.144 97.5193 101.112C97.5193 100.728 97.4113 100.44 97.1953 100.248C96.9793 100.056 96.7193 99.96 96.4153 99.96ZM105.579 96.12H106.995L103.107 106.716H101.691L105.579 96.12ZM40.9794 117L40.4754 115.404H37.6794L37.1754 117H35.7474L38.4714 108.84H39.7434L42.4794 117H40.9794ZM38.4594 112.908L38.0874 114.084H40.0554L39.6834 112.908L39.0834 110.844L38.4594 112.908ZM47.2879 117V116.172C46.9199 116.54 46.5999 116.792 46.3279 116.928C46.0639 117.056 45.7879 117.12 45.4999 117.12C44.8439 117.12 44.3319 116.872 43.9639 116.376C43.6039 115.88 43.4239 115.184 43.4239 114.288V113.64C43.4239 112.768 43.6439 112.076 44.0839 111.564C44.5239 111.052 45.1599 110.796 45.9919 110.796C46.1999 110.796 46.4039 110.816 46.6039 110.856C46.8119 110.896 47.0159 110.952 47.2159 111.024V108.12H48.5959V117H47.2879ZM44.8399 114.288C44.8399 114.824 44.9279 115.216 45.1039 115.464C45.2879 115.712 45.5439 115.836 45.8719 115.836C46.0559 115.836 46.2519 115.784 46.4599 115.68C46.6679 115.568 46.9199 115.36 47.2159 115.056V112.272C46.8239 112.112 46.4639 112.032 46.1359 112.032C45.6719 112.032 45.3399 112.176 45.1399 112.464C44.9399 112.752 44.8399 113.144 44.8399 113.64V114.288ZM54.1813 117V116.172C53.8133 116.54 53.4933 116.792 53.2213 116.928C52.9573 117.056 52.6813 117.12 52.3933 117.12C51.7373 117.12 51.2253 116.872 50.8573 116.376C50.4973 115.88 50.3173 115.184 50.3173 114.288V113.64C50.3173 112.768 50.5373 112.076 50.9773 111.564C51.4173 111.052 52.0533 110.796 52.8853 110.796C53.0933 110.796 53.2973 110.816 53.4973 110.856C53.7053 110.896 53.9093 110.952 54.1093 111.024V108.12H55.4893V117H54.1813ZM51.7333 114.288C51.7333 114.824 51.8213 115.216 51.9973 115.464C52.1813 115.712 52.4373 115.836 52.7653 115.836C52.9493 115.836 53.1453 115.784 53.3533 115.68C53.5613 115.568 53.8133 115.36 54.1093 115.056V112.272C53.7173 112.112 53.3573 112.032 53.0293 112.032C52.5653 112.032 52.2333 112.176 52.0333 112.464C51.8333 112.752 51.7333 113.144 51.7333 113.64V114.288ZM61.4491 109.764H59.9971V108.336H61.4491V109.764ZM61.4131 117H60.0331V110.916H61.4131V117ZM67.0943 116.796C66.8863 116.892 66.6463 116.968 66.3743 117.024C66.1023 117.088 65.8263 117.12 65.5463 117.12C65.0823 117.12 64.7103 117.024 64.4303 116.832C64.1503 116.64 63.9463 116.372 63.8183 116.028C63.6983 115.684 63.6383 115.292 63.6383 114.852V112.116H62.6543V110.916H63.6383V109.332H65.0183V110.916H66.9143V112.116H65.0183V114.852C65.0183 115.22 65.0863 115.476 65.2223 115.62C65.3663 115.756 65.5703 115.824 65.8343 115.824C65.9623 115.824 66.0983 115.812 66.2423 115.788C66.3943 115.756 66.5623 115.704 66.7463 115.632L67.0943 116.796ZM72.9439 116.652C72.5279 116.82 72.1359 116.94 71.7679 117.012C71.3999 117.084 71.0519 117.12 70.7239 117.12C69.8199 117.12 69.1359 116.864 68.6719 116.352C68.2079 115.84 67.9759 115.16 67.9759 114.312V113.592C67.9759 113.024 68.0799 112.532 68.2879 112.116C68.4959 111.7 68.7919 111.376 69.1759 111.144C69.5599 110.912 70.0119 110.796 70.5319 110.796C70.9559 110.796 71.3519 110.884 71.7199 111.06C72.0959 111.228 72.3999 111.496 72.6319 111.864C72.8719 112.224 72.9919 112.688 72.9919 113.256C72.9919 113.424 72.9799 113.604 72.9559 113.796C72.9319 113.98 72.8919 114.176 72.8359 114.384H69.3079C69.3239 114.88 69.4479 115.252 69.6799 115.5C69.9119 115.748 70.2839 115.872 70.7959 115.872C71.0679 115.872 71.3479 115.84 71.6359 115.776C71.9319 115.712 72.2359 115.616 72.5479 115.488L72.9439 116.652ZM70.5319 111.96C70.1639 111.96 69.8759 112.08 69.6679 112.32C69.4679 112.552 69.3519 112.888 69.3199 113.328H71.6239C71.6319 113.288 71.6359 113.252 71.6359 113.22C71.6359 113.18 71.6359 113.144 71.6359 113.112C71.6359 112.728 71.5279 112.44 71.3119 112.248C71.0959 112.056 70.8359 111.96 70.5319 111.96ZM76.0817 112.788V117H74.7017V110.916H76.0097V111.72C76.3857 111.392 76.7337 111.156 77.0537 111.012C77.3737 110.868 77.7017 110.796 78.0377 110.796C78.7817 110.796 79.2897 111.124 79.5617 111.78C79.9617 111.428 80.3337 111.176 80.6777 111.024C81.0217 110.872 81.3697 110.796 81.7217 110.796C82.2817 110.796 82.7097 110.984 83.0057 111.36C83.3017 111.728 83.4497 112.248 83.4497 112.92V117H82.0697V113.088C82.0697 112.416 81.8137 112.08 81.3017 112.08C81.1017 112.08 80.8817 112.128 80.6417 112.224C80.4017 112.32 80.1097 112.508 79.7657 112.788V117H78.3857V113.088C78.3857 112.416 78.1297 112.08 77.6177 112.08C77.4177 112.08 77.1977 112.128 76.9577 112.224C76.7177 112.32 76.4257 112.508 76.0817 112.788ZM85.032 113.196C85.032 112.268 85.232 111.368 85.632 110.496C86.04 109.624 86.652 108.792 87.468 108L88.428 108.9C87.748 109.596 87.248 110.292 86.928 110.988C86.608 111.676 86.448 112.412 86.448 113.196V113.64C86.448 114.416 86.608 115.152 86.928 115.848C87.248 116.544 87.748 117.24 88.428 117.936L87.468 118.836C86.652 118.044 86.04 117.212 85.632 116.34C85.232 115.468 85.032 114.568 85.032 113.64V113.196ZM91.0949 115.92C91.3909 115.92 91.6349 115.872 91.8269 115.776C92.0189 115.672 92.1149 115.52 92.1149 115.32C92.1149 115.144 92.0509 115.008 91.9229 114.912C91.8029 114.808 91.5829 114.716 91.2629 114.636L90.5789 114.456C90.0509 114.32 89.6589 114.092 89.4029 113.772C89.1549 113.452 89.0309 113.072 89.0309 112.632C89.0309 112.112 89.2109 111.676 89.5709 111.324C89.9309 110.972 90.4869 110.796 91.2389 110.796C91.5429 110.796 91.8629 110.832 92.1989 110.904C92.5349 110.976 92.8869 111.092 93.2549 111.252L92.8589 112.428C92.5229 112.268 92.2189 112.156 91.9469 112.092C91.6749 112.028 91.4349 111.996 91.2269 111.996C90.6589 111.996 90.3749 112.188 90.3749 112.572C90.3749 112.724 90.4229 112.844 90.5189 112.932C90.6229 113.02 90.8109 113.1 91.0829 113.172L91.7669 113.352C92.3509 113.504 92.7749 113.736 93.0389 114.048C93.3109 114.36 93.4469 114.752 93.4469 115.224C93.4469 115.784 93.2549 116.24 92.8709 116.592C92.4949 116.944 91.8989 117.12 91.0829 117.12C90.3869 117.12 89.6549 116.96 88.8869 116.64L89.2589 115.5C89.6349 115.652 89.9749 115.76 90.2789 115.824C90.5829 115.888 90.8549 115.92 91.0949 115.92ZM96.9045 113.64C96.9045 114.568 96.7005 115.468 96.2925 116.34C95.8925 117.212 95.2845 118.044 94.4685 118.836L93.5085 117.936C94.1965 117.24 94.6965 116.544 95.0085 115.848C95.3285 115.152 95.4885 114.416 95.4885 113.64V113.196C95.4885 112.412 95.3285 111.676 95.0085 110.988C94.6965 110.292 94.1965 109.596 93.5085 108.9L94.4685 108C95.2845 108.792 95.8925 109.624 96.2925 110.496C96.7005 111.368 96.9045 112.268 96.9045 113.196V113.64Z" fill="black" fill-opacity="0.42"/>
</svg>
