<svg width="43" height="42" viewBox="0 0 43 42" fill="none" xmlns="http://www.w3.org/2000/svg">
<g clip-path="url(#clip0_1_229)">
<path d="M5.375 0C3.94946 0 2.58231 0.553123 1.5743 1.53769C0.566293 2.52226 0 3.85761 0 5.25L0 36.75C0 38.1424 0.566293 39.4777 1.5743 40.4623C2.58231 41.4469 3.94946 42 5.375 42H37.625C39.0505 42 40.4177 41.4469 41.4257 40.4623C42.4337 39.4777 43 38.1424 43 36.75V5.25C43 3.85761 42.4337 2.52226 41.4257 1.53769C40.4177 0.553123 39.0505 0 37.625 0L5.375 0ZM14.3889 12.1957L21.5 19.1441L28.6111 12.1957C28.7361 12.0737 28.8844 11.9769 29.0476 11.9109C29.2109 11.8448 29.3858 11.8108 29.5625 11.8108C29.7392 11.8108 29.9141 11.8448 30.0774 11.9109C30.2406 11.9769 30.3889 12.0737 30.5139 12.1957C30.6388 12.3178 30.7379 12.4627 30.8055 12.6221C30.8731 12.7815 30.9079 12.9524 30.9079 13.125C30.9079 13.2976 30.8731 13.4685 30.8055 13.6279C30.7379 13.7873 30.6388 13.9322 30.5139 14.0543L23.4001 21L30.5139 27.9457C30.6388 28.0678 30.7379 28.2127 30.8055 28.3721C30.8731 28.5315 30.9079 28.7024 30.9079 28.875C30.9079 29.0476 30.8731 29.2185 30.8055 29.3779C30.7379 29.5373 30.6388 29.6822 30.5139 29.8043C30.3889 29.9263 30.2406 30.0231 30.0774 30.0891C29.9141 30.1552 29.7392 30.1892 29.5625 30.1892C29.3858 30.1892 29.2109 30.1552 29.0476 30.0891C28.8844 30.0231 28.7361 29.9263 28.6111 29.8043L21.5 22.8559L14.3889 29.8043C14.2639 29.9263 14.1156 30.0231 13.9524 30.0891C13.7891 30.1552 13.6142 30.1892 13.4375 30.1892C13.2608 30.1892 13.0859 30.1552 12.9226 30.0891C12.7594 30.0231 12.6111 29.9263 12.4861 29.8043C12.3612 29.6822 12.2621 29.5373 12.1945 29.3779C12.1269 29.2185 12.0921 29.0476 12.0921 28.875C12.0921 28.7024 12.1269 28.5315 12.1945 28.3721C12.2621 28.2127 12.3612 28.0678 12.4861 27.9457L19.5999 21L12.4861 14.0543C12.2338 13.8078 12.0921 13.4735 12.0921 13.125C12.0921 12.7765 12.2338 12.4422 12.4861 12.1957C12.7384 11.9493 13.0807 11.8108 13.4375 11.8108C13.7943 11.8108 14.1366 11.9493 14.3889 12.1957Z" fill="#DE4A4A"/>
</g>
<defs>
<clipPath id="clip0_1_229">
<rect width="43" height="42" fill="white"/>
</clipPath>
</defs>
</svg>
