<svg width="25" height="25" viewBox="0 0 25 25" fill="none" xmlns="http://www.w3.org/2000/svg">
<path d="M0 8.20313V7.42188C0 6.77467 0.524658 6.25001 1.17188 6.25001H18.75V3.90626C18.75 2.86295 20.0146 2.34171 20.7505 3.0776L24.6568 6.98385C25.1144 7.44151 25.1144 8.18351 24.6568 8.64112L20.7505 12.5474C20.0174 13.2804 18.75 12.7664 18.75 11.7188V9.37501H1.17188C0.524658 9.37501 0 8.85035 0 8.20313ZM23.8281 15.625H6.25V13.2813C6.25 12.2405 4.98721 11.7149 4.24946 12.4526L0.343213 16.3588C-0.114404 16.8165 -0.114404 17.5585 0.343213 18.0161L4.24946 21.9224C4.98325 22.6561 6.25 22.1405 6.25 21.0938V18.75H23.8281C24.4753 18.75 25 18.2254 25 17.5781V16.7969C25 16.1497 24.4753 15.625 23.8281 15.625Z" fill="white"/>
</svg>
